<svg xmlns="http://www.w3.org/2000/svg" width="16" height="16"><path d="M14.12 1.25h-.75V0h-1.25v1.25H3.88V0H2.62v1.25h-.75A1.874 1.874 0 000 3.12v11A1.876 1.876 0 001.87 16h12.25A1.878 1.878 0 0016 14.12v-11a1.876 1.876 0 00-1.88-1.87zM1.87 2.5h.75v1.25h1.26V2.5h8.24v1.25h1.25V2.5h.75a.625.625 0 01.63.62v1.5H1.25v-1.5a.623.623 0 01.62-.62zm12.25 12.25H1.87a.625.625 0 01-.62-.63V5.87h13.5v8.25a.627.627 0 01-.63.63zM2.37 7.19h1.25v1.25H2.37V7.19zm2.5 0h1.25v1.25H4.87V7.19zm2.5 0h1.25v1.25H7.37V7.19zm2.5 0h1.25v1.25H9.87V7.19zm2.5 0h1.25v1.25h-1.25V7.19zm-10 2.5h1.25v1.25H2.37V9.69zm2.5 0h1.25v1.25H4.87V9.69zm2.5 0h1.25v1.25H7.37V9.69zm2.5 0h1.25v1.25H9.87V9.69zm-7.5 2.5h1.25v1.25H2.37v-1.25zm2.5 0h1.25v1.25H4.87v-1.25zm2.5 0h1.25v1.25H7.37v-1.25zm2.5 0h1.25v1.25H9.87v-1.25zm2.5-2.5h1.25v1.25h-1.25V9.69z" fill="#fe3e57" fill-rule="evenodd"/></svg>