<svg xmlns="http://www.w3.org/2000/svg" width="18" height="20"><path d="M0 7.94v10.31a1.7 1.7 0 00.18.75l5.571-5.44C3.617 11.47 2.22 10.11 0 7.94zm12.248 5.62l5.57 5.44a1.686 1.686 0 00.181-.75V7.94c-2.13 2.08-3.593 3.51-5.751 5.62zM9 5.94a.585.585 0 10.591.54A.591.591 0 009 5.94zm2.151 8.2h-4.3l-5.819 5.69a1.805 1.805 0 00.771.17h14.4a1.805 1.805 0 00.771-.17zM2.4 8.62V5.11L.6 6.87zm15-1.75l-1.8-1.76v3.51zm-6.248 6.1L14.4 9.8V.75a.756.756 0 00-.769-.75H4.257a.644.644 0 00-.656.64V9.8l3.248 3.17h4.3zM4.801 6.52a4.2 4.2 0 018.4 0 1.8 1.8 0 01-3 1.3 1.744 1.744 0 11.6-1.3.6.6 0 001.2 0 3 3 0 00-6 0 2.894 2.894 0 001.386 2.47 3.177 3.177 0 003.028.15.586.586 0 11.5 1.06 4.362 4.362 0 01-4.176-.22A4.067 4.067 0 014.8 6.52z" fill="#fe3e57" fill-rule="evenodd"/></svg>