<svg xmlns="http://www.w3.org/2000/svg" width="16" height="16"><path id="home_icon" d="M893 310l-7.771 6.858a.665.665 0 00-.064.925.639.639 0 00.91.065l.286-.253v6.44a1.95 1.95 0 001.933 1.965h3.606v-5.274a1.138 1.138 0 011.128-1.146 1.138 1.138 0 011.128 1.146V326h3.544a1.95 1.95 0 001.934-1.965v-6.44l.286.253a.637.637 0 00.909-.065.663.663 0 00-.064-.925zm5.35 14.035a.65.65 0 01-.645.655h-2.256v-3.964a2.437 2.437 0 00-2.417-2.456 2.437 2.437 0 00-2.417 2.456v3.964h-2.32a.65.65 0 01-.645-.655v-7.578l5.35-4.722 5.35 4.722v7.578z" transform="translate(-885 -310)" fill="#727272" fill-rule="evenodd"/></svg>