<svg xmlns="http://www.w3.org/2000/svg" width="20" height="19.97"><path id="phone_icon" d="M414.477 1551.76l-2.485-2.49a1.807 1.807 0 00-2.485 0l-.414.42 4.969 4.97.415-.41a1.763 1.763 0 000-2.49zm-7.982-1.35l-4.912-4.92a1.323 1.323 0 01-.09-1.75l-4.958-4.97a6.341 6.341 0 00.3 8.6l7.774 7.78a6.291 6.291 0 008.587.31l-4.958-4.96a1.334 1.334 0 01-1.738-.09zm-3.782-7.94a1.764 1.764 0 000-2.49l-2.485-2.48a1.787 1.787 0 00-2.485 0l-.414.41 4.969 4.98z" transform="translate(-395 -1537.03)" fill="#fe3e57" fill-rule="evenodd"/></svg>